<svg width="18" height="18" viewBox="0 0 18 18" fill="none" xmlns="http://www.w3.org/2000/svg">
<path fill-rule="evenodd" clip-rule="evenodd" d="M17.2769 6.20537C16.1647 2.65131 12.8746 0.229249 9.14928 0.222323C5.42399 0.215398 2.12481 2.62504 0.999323 6.17495C-0.126164 9.72487 1.18231 13.5943 4.23158 15.7335V15.7305C4.25193 15.748 4.2735 15.7642 4.29622 15.7786C7.21885 17.8022 11.0932 17.7915 14.0046 15.7518H14.0088C17.0661 13.624 18.3891 9.75942 17.2769 6.20537ZM5.4707 15.081V15.0779C5.53662 15.0077 5.61233 14.9473 5.69561 14.8988L7.65567 13.938C8.05772 13.7369 8.31277 13.3273 8.31577 12.8779V12.6464C8.31448 12.3047 8.119 11.9935 7.81173 11.844C7.08865 11.4863 6.56047 10.8276 6.36849 10.0443C6.31413 9.84353 6.16107 9.68432 5.96259 9.62206C5.81596 9.55759 5.72761 9.40608 5.74382 9.24673V8.74102C5.72732 8.60537 5.7851 8.47136 5.89495 8.39011C6.07544 8.29451 6.196 8.11502 6.21614 7.91182C6.25814 7.45431 6.36884 7.00573 6.54462 6.5812C6.71067 6.21322 6.80952 5.81847 6.83652 5.41572C7.46983 5.73237 8.17949 5.86452 8.88437 5.79712C8.95565 5.79163 9.03186 5.79163 9.10806 5.79227C11.4545 5.79227 11.8866 6.93033 12.0013 7.9216C12.0243 8.12094 12.1439 8.29615 12.3212 8.39011C12.4505 8.45822 12.5285 8.59516 12.5212 8.74102V9.24673C12.5284 9.41737 12.4194 9.57137 12.256 9.62142C12.0551 9.68339 11.9002 9.8446 11.8465 10.0479C11.6701 10.8242 11.1588 11.4825 10.4502 11.8458C10.1444 11.9956 9.95014 12.3059 9.94921 12.6464V12.9022C9.94957 13.3454 10.1994 13.7506 10.5952 13.9501L12.4682 14.9128C12.5694 14.9652 12.6624 15.0321 12.7443 15.1114C10.4895 16.4052 7.71453 16.3935 5.4707 15.081ZM13.0203 13.8222C13.3058 13.9671 13.5589 14.1684 13.7645 14.4138C16.1583 12.4581 17.0626 9.20859 16.0228 6.29811C14.983 3.38762 12.2241 1.44577 9.13248 1.44834C6.05207 1.44777 3.30185 3.37777 2.25593 6.27412C1.21001 9.17039 2.0928 12.4114 4.46326 14.3779C4.64811 14.1488 4.87587 13.958 5.13371 13.8161L7.10292 12.8505C6.23856 12.3697 5.58603 11.5822 5.27449 10.6437C4.79281 10.3459 4.50612 9.81446 4.52176 9.24857V8.74287C4.50583 8.27786 4.69289 7.82892 5.03436 7.51278C5.10229 7.02614 5.2332 6.55035 5.42383 6.09748C5.59832 5.73093 5.65724 5.32004 5.59268 4.91922C5.55461 4.73131 5.52733 4.54125 5.51104 4.35019C5.48119 4.04547 5.65446 3.75717 5.93765 3.64043C6.2272 3.51428 6.56532 3.59503 6.76652 3.83842C6.89844 3.98735 7.0495 4.11829 7.2157 4.22774C7.68688 4.51819 8.24148 4.64334 8.79179 4.58351C8.89478 4.57559 9.00149 4.57559 9.10813 4.57559C11.9976 4.57559 12.9271 6.10362 13.1709 7.5C13.5375 7.80715 13.7466 8.26287 13.7401 8.74102V9.24672C13.7428 9.82125 13.4378 10.3533 12.9405 10.6413C12.6514 11.5735 12.0175 12.3603 11.1681 12.8413V12.9022L13.0203 13.8222Z" fill="#020066"/>
</svg>
