<svg width="7" height="11" viewBox="0 0 7 11" fill="none" xmlns="http://www.w3.org/2000/svg">
<path fill-rule="evenodd" clip-rule="evenodd" d="M2.52399 9.34696V7.01961C1.05705 6.50299 0.176783 5.00358 0.440276 3.47083C0.703768 1.9382 2.03434 0.818916 3.58958 0.821913C5.14481 0.818916 6.47538 1.93807 6.73887 3.47083C7.00237 5.00358 6.1221 6.50299 4.65516 7.01961V9.34696C4.65516 9.93551 4.17813 10.4125 3.58958 10.4125C3.00102 10.4125 2.52399 9.93551 2.52399 9.34696ZM4.65514 4.01881C4.65514 3.43038 4.17811 2.95322 3.58956 2.95322C3.00113 2.95322 2.52397 3.43038 2.52397 4.01881C2.52397 4.60723 3.00101 5.08439 3.58956 5.08439C4.17811 5.08439 4.65514 4.60736 4.65514 4.01881Z" fill="#020066"/>
</svg>
