<svg width="52" height="64" viewBox="0 0 52 64" fill="none" xmlns="http://www.w3.org/2000/svg">
<path fill-rule="evenodd" clip-rule="evenodd" d="M48.3114 38.3625H49.377C50.5541 38.3625 51.5083 39.3167 51.5083 40.4938V56.4782C51.5037 60.596 48.1667 63.9328 44.049 63.9376H4.57816C2.24856 63.9352 0.360649 62.0473 0.358276 59.7177V4.21988C0.360649 1.89028 2.24856 0.00237268 4.57816 0H34.5009C36.8305 0.00237268 38.7184 1.89028 38.7208 4.21988V18.3191C44.2726 19.3509 48.3025 24.1906 48.3114 29.8375V38.3625ZM46.1801 38.3626V29.8375C46.1801 24.5408 41.8862 20.2469 36.5895 20.2469C31.2928 20.2469 26.9989 24.5408 26.9989 29.8375V38.3626H46.1801ZM2.48957 4.21984C2.49069 3.06684 3.42516 2.13237 4.57815 2.13125H34.5009C35.6539 2.13237 36.5884 3.06684 36.5895 4.21984V8.52501H2.48957V4.21984ZM36.5896 10.6562H2.48957V53.2814H21.6708V40.4939C21.6708 39.3168 22.625 38.3626 23.8021 38.3626H24.8677V29.8375C24.8753 23.3668 30.119 18.1232 36.5896 18.1156V10.6562ZM4.57815 61.8063C3.42516 61.8051 2.49069 60.8707 2.48957 59.7177V55.4125H21.6708V56.4781C21.6706 58.4847 22.4815 60.4064 23.9193 61.8063H4.57815ZM46.1801 42.625H49.377H49.3771V40.4938H23.8021V42.6251H26.999C27.5875 42.6251 28.0646 43.1022 28.0646 43.6907C28.0646 44.2793 27.5875 44.7563 26.999 44.7563H23.8021V46.8876H26.999C27.5875 46.8876 28.0646 47.3646 28.0646 47.9532C28.0646 48.5417 27.5875 49.0188 26.999 49.0188H23.8021V51.1501H26.999C27.5875 51.1501 28.0646 51.6271 28.0646 52.2156C28.0646 52.8042 27.5875 53.2812 26.999 53.2812H23.8021V55.4125H26.999C27.5875 55.4125 28.0646 55.8896 28.0646 56.4781C28.0646 57.0665 27.5875 57.5437 26.999 57.5437H23.9086C24.4184 60.0228 26.5991 61.8029 29.1302 61.8062H44.049C46.5799 61.803 48.7606 60.0228 49.2705 57.5437H46.1801C45.5917 57.5437 45.1146 57.0667 45.1146 56.4781C45.1146 55.8897 45.5916 55.4125 46.1801 55.4125H49.377V53.2812H46.1801C45.5917 53.2812 45.1146 52.8042 45.1146 52.2156C45.1146 51.6271 45.5916 51.1501 46.1801 51.1501H49.377V49.0186H46.1801C45.5917 49.0186 45.1146 48.5416 45.1146 47.9531C45.1146 47.3645 45.5916 46.8875 46.1801 46.8875H49.377V44.7562H46.1801C45.5917 44.7562 45.1146 44.2792 45.1146 43.6906C45.1146 43.1021 45.5916 42.625 46.1801 42.625Z" fill="#020066"/>
</svg>
